<?xml version="1.0" encoding="UTF-8"?>
<svg width="140px" height="164px" viewBox="0 0 140 164" version="1.1" xmlns="http://www.w3.org/2000/svg" xmlns:xlink="http://www.w3.org/1999/xlink">
    <!-- Generator: Sketch 61.1 (89650) - https://sketch.com -->
    <title>6</title>
    <desc>Created with Sketch.</desc>
    <g id="Page-1" stroke="none" stroke-width="1" fill="none" fill-rule="evenodd">
        <g id="Artboard" transform="translate(-683.000000, -421.000000)">
            <g id="6" transform="translate(683.000000, 421.000000)">
                <path d="M6.49911111,21.6150156 C5.15096296,19.8512656 3.85466667,18.0097031 2.7917037,16.1422031 C3.88059259,18.0097031 5.17688889,19.8512656 6.49911111,21.6150156" id="Fill-51" fill="#96A3CD"></path>
                <path d="M9.53244444,25.375175 C8.52133333,24.2079875 7.4842963,22.93705 6.49911111,21.6142375 C7.51281481,22.93705 8.54725926,24.2079875 9.53244444,25.375175" id="Fill-53" fill="#96A3CD"></path>
                <path d="M27.7842963,49.7561656 C26.1017037,51.0789781 24.5176296,52.4796031 23.0398519,53.9839781 C20.4472593,51.6496031 17.1546667,51.1049156 15.1065185,51.0530406 C17.050963,49.0558531 19.150963,47.2142906 21.435037,45.5024156 L21.460963,45.5024156 C22.1868889,44.9058531 22.9646667,44.3611656 23.7398519,43.8164781 C19.8276296,38.1361656 16.4028148,33.2858531 15.0028148,31.5739781 C14.4583704,30.9255406 13.525037,29.8880406 12.3324444,28.5652281 L12.360963,28.5652281 C13.5535556,29.8880406 14.4842963,30.9255406 15.0287407,31.5739781 C16.4287407,33.2858531 19.8768889,38.1361656 23.7917037,43.8164781 C25.088,45.7099156 26.4361481,47.7330406 27.7842963,49.7561656" id="Fill-55" fill="#9AB7FD"></path>
                <path d="M79.4033333,106.8708 C77.2514815,109.386737 74.632963,107.519237 74.632963,107.519237 L69.0588889,103.991737 C67.1922222,101.37205 64.47,97.9223625 61.4133333,95.3804875 C61.6959259,94.8617375 62.4996296,93.90205 64.2625926,94.6283 C66.5985185,95.5879875 78.6774074,103.057987 78.6774074,103.057987 C78.6774074,103.057987 81.27,104.666112 79.4033333,106.8708" id="Fill-57" fill="#4BAB03"></path>
                <path d="M126.875,94.3691844 C120.523148,111.980747 100.84537,125.312622 76.8094444,127.465434 C76.5787037,123.652622 76.6564815,119.113559 77.875,116.260434 C79.9724074,111.332309 87.2601852,107.078559 89.1501852,106.041059 C90.5787037,106.871059 92.575,107.415747 95.2712963,107.441684 C103.541667,107.519497 108.153889,98.0263719 109.787222,91.6198094 C110.43537,89.0779344 110.098333,87.0029344 109.426852,85.4466844 C111.215741,83.8385594 114.427963,80.5704344 114.897222,77.2763719 C115.179815,75.3310594 114.739074,73.1523094 114.171296,71.2848094 C120.860185,77.7432469 125.420556,85.6541844 126.875,94.3691844" id="Fill-59" fill="#FFFFFF"></path>
                <path d="M72.4305556,163.829291 L72.402037,163.829291 C71.575,163.855228 70.7194444,163.883759 69.8898148,163.883759 C68.9538889,163.883759 68.0231481,163.855228 67.1131481,163.803353 C65.6872222,163.751478 64.2638889,163.621791 62.837963,163.442822 C62.5009259,163.388353 62.1638889,163.362416 61.8242593,163.310541 C61.2305556,163.235322 60.6057407,163.154916 60.012037,163.025228 C59.4131481,162.921478 58.8194444,162.817728 58.2231481,162.690634 C57.6527778,162.586884 57.0824074,162.454603 56.5094444,162.324916 C55.8898148,162.169291 55.2935185,162.013666 54.6687037,161.858041 C53.9168519,161.650541 53.1935185,161.443041 52.4416667,161.209603 C51.6353704,160.952822 50.8601852,160.690853 50.0824074,160.405541 C49.2761111,160.120228 48.5009259,159.834916 47.7231481,159.523666 C46.1675926,158.927103 44.6638889,158.226791 43.1601852,157.448666 C41.6564815,156.722416 40.1787037,155.918353 38.7527778,155.013134 C36.6009259,153.687728 34.5009259,152.261166 32.4527778,150.678978 C30.4046296,149.148666 28.4316667,147.462728 26.5675926,145.621166 C25.3231481,144.402103 24.102037,143.157103 22.9094444,141.860228 C21.7168519,140.563353 20.5787037,139.188666 19.4612963,137.788041 C18.9168519,137.113666 18.3724074,136.387416 17.827963,135.663759 C17.1305556,134.704072 16.427963,133.718447 15.7564815,132.704291 C15.2612963,131.978041 14.7972222,131.251791 14.3305556,130.525541 C14.1231481,130.214291 13.9157407,129.877103 13.7083333,129.539916 C13.2675926,128.813666 12.8527778,128.087416 12.412037,127.361166 C11.3231481,125.467728 10.312037,123.522416 9.32425926,121.525228 C8.52314815,119.839291 7.7712963,118.101478 7.04277778,116.337728 C14.1724074,128.087416 31.4157407,147.776572 66.6724074,148.111166 C66.6724074,148.111166 74.4501852,147.073666 78.1057407,153.067822 C80.7527778,157.399384 77.2009259,161.520853 72.4305556,163.829291" id="Fill-61" fill="#CADAFD"></path>
                <path d="M27.7842963,49.7561656 C26.1017037,51.0789781 24.5176296,52.4796031 23.0398519,53.9839781 C20.4472593,51.6496031 17.1546667,51.1049156 15.1065185,51.0530406 C17.050963,49.1077281 19.1794815,47.2402281 21.435037,45.5024156 L21.460963,45.5024156 C22.2361481,44.9317906 22.988,44.3611656 23.7917037,43.8164781 C25.088,45.7099156 26.4361481,47.7330406 27.7842963,49.7561656" id="Fill-63" fill="#9AB7FD"></path>
                <path d="M79.4033333,106.8708 C77.2514815,109.386737 74.632963,107.519237 74.632963,107.519237 L69.0588889,103.991737 C67.1922222,101.37205 64.47,97.9223625 61.4133333,95.3804875 C61.6959259,94.8617375 62.4996296,93.90205 64.2625926,94.6283 C66.5985185,95.5879875 78.6774074,103.057987 78.6774074,103.057987 C78.6774074,103.057987 81.27,104.666112 79.4033333,106.8708" id="Fill-65" fill="#4BAB03"></path>
                <path d="M94.2321852,75.4861656 C90.6051481,78.8061656 86.2495926,81.1664781 81.347,80.9849156 C80.4162593,80.9589781 79.5062593,80.8811656 78.6507037,80.7514781 C69.1903333,79.6361656 63.5644074,74.5264781 61.0210741,71.5436656 C60.0125556,70.3505406 59.494037,69.4946031 59.3903333,69.3130406 C59.9347778,69.7021031 60.5829259,70.1949156 61.384037,70.7396031 C65.2729259,73.3852281 71.9618148,77.0424156 78.9618148,77.0424156 C79.3532963,77.0424156 79.7681111,77.0164781 80.1544074,76.9905406 C81.7384815,76.8867906 83.3173704,76.6533531 84.8495926,76.3680406 C85.547,77.3277281 86.794037,77.7686656 87.9866296,77.4055406 L94.2321852,75.4861656 Z" id="Fill-67" fill="#A52833"></path>
                <path d="M126.875,94.3691844 C120.523148,111.980747 100.84537,125.312622 76.8094444,127.465434 C76.5787037,123.652622 76.6564815,119.113559 77.875,116.260434 C79.9724074,111.332309 87.2601852,107.078559 89.1501852,106.041059 C90.5787037,106.871059 92.575,107.415747 95.2712963,107.441684 C103.541667,107.519497 108.153889,98.0263719 109.787222,91.6198094 C110.43537,89.0779344 110.098333,87.0029344 109.426852,85.4466844 C111.215741,83.8385594 114.427963,80.5704344 114.897222,77.2763719 C115.179815,75.3310594 114.739074,73.1523094 114.171296,71.2848094 C120.860185,77.7432469 125.420556,85.6541844 126.875,94.3691844" id="Fill-69" fill="#FFFFFF"></path>
                <path d="M27.7842963,49.7561656 C26.1017037,51.0789781 24.5176296,52.4796031 23.0398519,53.9839781 C20.4472593,51.6496031 17.1546667,51.1049156 15.1065185,51.0530406 C17.050963,49.0558531 19.150963,47.2142906 21.435037,45.5024156 L21.460963,45.5024156 C22.1868889,44.9058531 22.9646667,44.3611656 23.7398519,43.8164781 C19.8276296,38.1361656 16.4028148,33.2858531 15.0028148,31.5739781 C14.4583704,30.9255406 13.525037,29.8880406 12.3324444,28.5652281 L12.360963,28.5652281 C13.5535556,29.8880406 14.4842963,30.9255406 15.0287407,31.5739781 C16.4287407,33.2858531 19.8768889,38.1361656 23.7917037,43.8164781 C25.088,45.7099156 26.4361481,47.7330406 27.7842963,49.7561656" id="Fill-71" fill="#9AB7FD"></path>
                <path d="M79.4033333,106.8708 C77.2514815,109.386737 74.632963,107.519237 74.632963,107.519237 L69.0588889,103.991737 C67.1922222,101.37205 64.47,97.9223625 61.4133333,95.3804875 C61.6959259,94.8617375 62.4996296,93.90205 64.2625926,94.6283 C66.5985185,95.5879875 78.6774074,103.057987 78.6774074,103.057987 C78.6774074,103.057987 81.27,104.666112 79.4033333,106.8708" id="Fill-73" fill="#4BAB03"></path>
                <path d="M126.875,94.3691844 C120.523148,111.980747 100.84537,125.312622 76.8094444,127.465434 C76.5787037,123.652622 76.6564815,119.113559 77.875,116.260434 C79.9724074,111.332309 87.2601852,107.078559 89.1501852,106.041059 C90.5787037,106.871059 92.575,107.415747 95.2712963,107.441684 C103.541667,107.519497 108.153889,98.0263719 109.787222,91.6198094 C110.43537,89.0779344 110.098333,87.0029344 109.426852,85.4466844 C111.215741,83.8385594 114.427963,80.5704344 114.897222,77.2763719 C115.179815,75.3310594 114.739074,73.1523094 114.171296,71.2848094 C120.860185,77.7432469 125.420556,85.6541844 126.875,94.3691844" id="Fill-75" fill="#FFFFFF"></path>
                <path d="M138.255444,96.2880406 C131.592481,133.897416 104.811,162.324916 72.4295185,163.829291 C77.1998889,161.520853 80.7517407,157.399384 78.1072963,153.067822 C74.4517407,147.073666 66.673963,148.111166 66.673963,148.111166 C31.4147037,147.776572 14.173963,128.087416 7.04433333,116.337728 C7.77025926,118.101478 8.52211111,119.839291 9.32581481,121.525228 C8.49618519,119.839291 7.74433333,118.101478 7.01840741,116.337728 C3.82951852,108.582416 1.59988889,100.178666 0.459148148,91.3080406 C0.511,91.3599156 0.536925926,91.3858531 0.588777778,91.4377281 C2.37766667,104.017416 9.53322222,115.300228 20.1887778,123.859603 C20.2147037,123.859603 20.2147037,123.888134 20.2406296,123.911478 C32.8924815,134.001166 50.4443333,140.278041 69.8887778,140.278041 C89.3332222,140.278041 106.911,134.001166 119.562852,123.888134 C128.870259,116.444072 135.507296,106.925009 138.255444,96.2880406" id="Fill-77" fill="#94B4FF"></path>
                <path d="M72.4305556,163.829291 L72.402037,163.829291 C71.575,163.855228 70.7194444,163.883759 69.8898148,163.883759 C68.9538889,163.883759 68.0231481,163.855228 67.1131481,163.803353 C65.6872222,163.751478 64.2638889,163.621791 62.837963,163.442822 C62.5009259,163.388353 62.1638889,163.362416 61.8242593,163.310541 C61.2305556,163.235322 60.6057407,163.154916 60.012037,163.025228 C59.4131481,162.921478 58.8194444,162.817728 58.2231481,162.690634 C57.6527778,162.586884 57.0824074,162.454603 56.5094444,162.324916 C55.8898148,162.169291 55.2935185,162.013666 54.6687037,161.858041 C53.9168519,161.650541 53.1935185,161.443041 52.4416667,161.209603 C51.6353704,160.952822 50.8601852,160.690853 50.0824074,160.405541 C49.2761111,160.120228 48.5009259,159.834916 47.7231481,159.523666 C46.1675926,158.927103 44.6638889,158.226791 43.1601852,157.448666 C41.6564815,156.722416 40.1787037,155.918353 38.7527778,155.013134 C36.6009259,153.687728 34.5009259,152.261166 32.4527778,150.678978 C30.4046296,149.148666 28.4316667,147.462728 26.5675926,145.621166 C25.3231481,144.402103 24.102037,143.157103 22.9094444,141.860228 C21.7168519,140.563353 20.5787037,139.188666 19.4612963,137.788041 C18.9168519,137.113666 18.3724074,136.387416 17.827963,135.663759 C17.1305556,134.704072 16.427963,133.718447 15.7564815,132.704291 C15.2612963,131.978041 14.7972222,131.251791 14.3305556,130.525541 C14.1231481,130.214291 13.9157407,129.877103 13.7083333,129.539916 C13.2675926,128.813666 12.8527778,128.087416 12.412037,127.361166 C11.3231481,125.467728 10.312037,123.522416 9.32425926,121.525228 C8.52314815,119.839291 7.7712963,118.101478 7.04277778,116.337728 C14.1724074,128.087416 31.4157407,147.776572 66.6724074,148.111166 C66.6724074,148.111166 74.4501852,147.073666 78.1057407,153.067822 C80.7527778,157.399384 77.2009259,161.520853 72.4305556,163.829291" id="Fill-79" fill="#CADAFD"></path>
                <path d="M36.3139259,63.3481937 C33.3065185,65.0600687 30.5091111,67.0313187 27.9657778,69.1841312 C27.8620741,66.8238188 27.4472593,62.4922562 26.150963,58.9128813 C25.6065185,57.3825688 24.8805926,55.9819438 23.9731852,54.9185062 C23.688,54.5813187 23.3794815,54.2700687 23.0398519,53.9847562 C24.5176296,52.4803812 26.1017037,51.0797562 27.7842963,49.7569438 C29.4694815,52.2728813 31.1028148,54.8147562 32.6065185,57.2010063 C34.0065185,59.4316312 35.2794815,61.5325687 36.3139259,63.3481937" id="Fill-81" fill="#658EFF"></path>
                <path d="M79.4033333,106.8708 C77.2514815,109.386737 74.632963,107.519237 74.632963,107.519237 L69.0588889,103.991737 C67.1922222,101.37205 64.47,97.9223625 61.4133333,95.3804875 C61.6959259,94.8617375 62.4996296,93.90205 64.2625926,94.6283 C66.5985185,95.5879875 78.6774074,103.057987 78.6774074,103.057987 C78.6774074,103.057987 81.27,104.666112 79.4033333,106.8708" id="Fill-83" fill="#4BAB03"></path>
                <path d="M129.103074,81.9451219 C129.103074,86.2507469 128.325296,90.4266844 126.876037,94.3691844 C125.421593,85.6541844 120.85863,77.7432469 114.169741,71.2848094 C114.169741,71.2588719 114.143815,71.2588719 114.143815,71.2588719 C111.032704,68.2760594 107.454926,65.6044969 103.488259,63.3479344 C101.777148,62.3363719 99.9908519,61.4285594 98.1215926,60.5985594 C96.4130741,57.9010594 94.2067778,54.9960594 91.4586296,52.4541844 C90.3956667,51.4426219 89.2549259,50.4829344 88.0364074,49.6269969 C77.8993704,42.4941844 70.9771481,49.8604344 70.9771481,49.8604344 C70.9771481,49.8604344 69.1104815,51.4426219 66.4141852,54.7626219 L66.3908519,54.7626219 C59.2327037,55.0998094 52.466037,56.5004344 46.2697407,58.7310594 C45.0771481,54.9701219 43.3141852,49.9382469 40.7993704,43.4019969 C40.6438148,43.0129344 40.5141852,42.6498094 40.3352963,42.2607469 C49.0178889,38.3701219 59.1030741,36.1394969 69.8882593,36.1394969 C94.6215926,36.1394969 115.803074,47.8632469 124.643815,64.5151219 C127.524185,69.8841844 129.103074,75.7719969 129.103074,81.9451219" id="Fill-85" fill="#96B3FF"></path>
                <path d="M126.875,94.3691844 C120.523148,111.980747 100.84537,125.312622 76.8094444,127.465434 C76.5787037,123.652622 76.6564815,119.113559 77.875,116.260434 C79.9724074,111.332309 87.2601852,107.078559 89.1501852,106.041059 C90.5787037,106.871059 92.575,107.415747 95.2712963,107.441684 C103.541667,107.519497 108.153889,98.0263719 109.787222,91.6198094 C110.43537,89.0779344 110.098333,87.0029344 109.426852,85.4466844 C111.215741,83.8385594 114.427963,80.5704344 114.897222,77.2763719 C115.179815,75.3310594 114.739074,73.1523094 114.171296,71.2848094 C120.860185,77.7432469 125.420556,85.6541844 126.875,94.3691844" id="Fill-87" fill="#FFFFFF"></path>
                <path d="M79.4033333,106.8708 C77.2514815,109.386737 74.632963,107.519237 74.632963,107.519237 L69.0588889,103.991737 C67.1922222,101.37205 64.47,97.9223625 61.4133333,95.3804875 C61.6959259,94.8617375 62.4996296,93.90205 64.2625926,94.6283 C66.5985185,95.5879875 78.6774074,103.057987 78.6774074,103.057987 C78.6774074,103.057987 81.27,104.666112 79.4033333,106.8708" id="Fill-89" fill="#4BAB03"></path>
                <path d="M126.875,94.3691844 C120.523148,111.980747 100.84537,125.312622 76.8094444,127.465434 C76.5787037,123.652622 76.6564815,119.113559 77.875,116.260434 C79.9724074,111.332309 87.2601852,107.078559 89.1501852,106.041059 C90.5787037,106.871059 92.575,107.415747 95.2712963,107.441684 C103.541667,107.519497 108.153889,98.0263719 109.787222,91.6198094 C110.43537,89.0779344 110.098333,87.0029344 109.426852,85.4466844 C111.215741,83.8385594 114.427963,80.5704344 114.897222,77.2763719 C115.179815,75.3310594 114.739074,73.1523094 114.171296,71.2848094 C120.860185,77.7432469 125.420556,85.6541844 126.875,94.3691844" id="Fill-91" fill="#FFFFFF"></path>
                <path d="M48.7604444,69.41705 C48.0578519,73.826425 45.8826667,74.345175 43.9615556,73.8523625 C43.6504444,73.77455 43.3393333,73.6708 43.0567407,73.5411125 C41.6567407,72.94455 40.5678519,71.8033 39.8911852,70.4286125 L37.6874815,65.837675 C37.2985926,65.0854875 36.8319259,64.2554875 36.3134074,63.347675 C35.278963,61.53205 34.0085926,59.4311125 32.6085926,57.2004875 C31.1022963,54.8142375 29.4715556,52.2723625 27.7837778,49.756425 C26.4382222,47.7333 25.0874815,45.710175 23.7911852,43.8167375 C19.8763704,38.136425 16.4282222,33.2861125 15.0282222,31.5742375 C14.4837778,30.9258 13.553037,29.8883 12.3604444,28.5654875 L12.3319259,28.5654875 L12.3319259,28.53955 C11.4763704,27.6058 10.5456296,26.5423625 9.53192593,25.375175 C8.54674074,24.2079875 7.5122963,22.93705 6.49859259,21.6142375 C5.17637037,19.8504875 3.88007407,18.008925 2.79377778,16.141425 C2.53451852,15.67455 2.27266667,15.207675 2.03933333,14.7148625 C1.57525926,13.80705 1.16044444,12.8992375 0.849333333,11.991425 C-0.397703704,8.3861125 -0.265481481,5.0661125 2.71340741,2.80955 C5.28007407,0.8642375 7.92711111,0.578925 10.416,1.1754875 C9.09118519,1.6423625 7.79488889,2.4723625 7.12081481,4.0286125 C5.4097037,8.0229875 6.16155556,13.3142375 13.9393333,21.8736125 C14.4604444,22.4442375 14.953037,22.988925 15.4197037,23.507675 L15.4197037,23.5336125 L15.443037,23.5336125 C22.0826667,30.7961125 24.5974815,33.2342375 29.9356296,32.2486125 C32.3985926,31.7817375 33.1011852,29.525175 33.1011852,27.08705 C34.6800741,29.9142375 36.2641481,33.0008 37.7678519,36.268925 C38.6726667,38.2142375 39.5282222,40.211425 40.3345185,42.2604875 C40.5134074,42.64955 40.643037,43.012675 40.8011852,43.4017375 C43.3134074,49.9379875 45.0763704,54.9698625 46.268963,58.7308 C47.668963,63.0883 48.3456296,65.7858 48.6567407,67.2123625 C48.8122963,67.9386125 48.8615556,68.6908 48.7604444,69.41705" id="Fill-93" fill="#96A3CD"></path>
                <path d="M33.1011852,27.0875687 C33.1011852,29.5256937 32.3985926,31.7822562 29.9356296,32.2491313 C24.5974815,33.2347563 22.0826667,30.7966313 15.443037,23.5341312 L15.4197037,23.5341312 L15.4197037,23.5081938 C14.953037,22.9894437 14.4604444,22.4447563 13.9393333,21.8741313 C6.16155556,13.3147562 5.4097037,8.02350625 7.12081481,4.02913125 C7.79488889,2.47288125 9.09118519,1.64288125 10.416,1.17600625 L10.4419259,1.17600625 C16.6122963,2.60256875 21.7715556,9.39819375 21.7715556,9.39819375 C21.7715556,9.39819375 22.6763704,10.5653812 24.1022963,12.6403813 C24.1308148,12.6403813 24.1308148,12.6663187 24.1308148,12.6663187 C26.2800741,15.7528812 29.653037,20.8106938 33.1011852,27.0875687" id="Fill-95" fill="#CDD4E7"></path>
                <path d="M101.44037,66.771425 C101.284815,66.978925 101.157778,67.2123625 100.99963,67.4198625 L86.2996296,71.90705 C85.0811111,72.2961125 84.2774074,73.4373625 84.2774074,74.656425 C84.2774074,74.9158 84.3292593,75.2011125 84.4096296,75.486425 C84.5107407,75.797675 84.6662963,76.108925 84.8503704,76.3683 C83.3181481,76.6536125 81.7366667,76.88705 80.1551852,76.9908 C79.7688889,77.0167375 79.3514815,77.042675 78.9625926,77.042675 C79.6366667,67.186425 79.3255556,58.160175 76.5281481,55.0736125 C76.5281481,55.0736125 76.4996296,55.0217375 76.4737037,54.9958 L76.4477778,54.9958 C75.6440741,54.1398625 74.6588889,53.7767375 73.4403704,54.010175 C72.8959259,54.113925 72.3281481,54.3473625 71.7837037,54.7104875 L71.7551852,54.7104875 C69.007037,56.4223625 66.2614815,60.7798625 64.132963,64.903925 C63.0207407,67.0308 62.0848148,69.1058 61.3848148,70.7398625 C60.5811111,70.195175 59.932963,69.7023625 59.3885185,69.3133 L59.3651852,69.2873625 C58.507037,68.638925 58.2218519,67.4458 58.7403704,66.51205 C61.4625926,61.376425 64.2133333,57.4598625 66.3885185,54.7623625 L66.4144444,54.7623625 C69.1107407,51.4423625 70.9774074,49.860175 70.9774074,49.860175 C70.9774074,49.860175 77.8996296,42.493925 88.0366667,49.6267375 C89.2551852,50.482675 90.3959259,51.4423625 91.4588889,52.453925 C94.207037,54.9958 96.4133333,57.9008 98.1218519,60.5983 C99.5737037,62.932675 100.688519,65.111425 101.44037,66.771425" id="Fill-97" fill="#FDE96E"></path>
                <path d="M79.4033333,106.8708 C77.2514815,109.386738 74.632963,107.519238 74.632963,107.519238 L69.0588889,103.991738 C69.707037,104.89955 70.2514815,105.703613 70.6662963,106.35205 C71.2392593,107.233925 70.8477778,108.401113 69.8625926,108.790175 C69.707037,108.870581 69.5255556,108.9458 69.3440741,109.023613 C67.8948148,110.271206 65.2477778,112.291738 61.9811111,113.82205 C59.5181481,114.9633 56.6922222,115.7933 53.7885185,115.767363 C49.4096296,115.715487 45.3885185,113.432988 42.4848148,111.12455 C39.6874074,108.974331 37.8959259,106.792988 37.6885185,106.533613 L37.6625926,106.507675 C36.9107407,105.835894 36.832963,104.69205 37.4318519,103.890581 C39.7625926,100.74955 43.9885185,97.377675 43.9885185,97.377675 C43.9885185,97.377675 53.4774074,89.75205 59.8811111,94.2133 C60.3996296,94.576425 60.9181481,94.9654875 61.4133333,95.3804875 C61.6959259,94.8617375 62.4996296,93.90205 64.2625926,94.6283 C66.5985185,95.5879875 78.6774074,103.057988 78.6774074,103.057988 C78.6774074,103.057988 81.27,104.666113 79.4033333,106.8708 M114.17,71.28455 C114.17,71.2586125 114.144074,71.2586125 114.144074,71.2586125 C111.032963,68.2758 107.455185,65.6042375 103.488519,63.347675 C101.777407,62.3361125 99.9885185,61.4283 98.1218519,60.5983 C99.5737037,62.932675 100.688519,65.111425 101.44037,66.771425 C101.518148,66.92705 101.598519,67.082675 101.673704,67.2383 C103.073704,66.978925 104.473704,67.808925 104.914444,69.2354875 C104.992222,69.5208 105.046667,69.8061125 105.046667,70.0654875 C105.046667,71.28455 104.24037,72.4258 102.998519,72.8148625 L94.232963,75.486425 C90.6033333,78.806425 86.2503704,81.1667375 81.3477778,80.985175 C80.417037,80.9592375 79.507037,80.881425 78.6514815,80.7517375 C69.1911111,79.636425 63.5651852,74.5267375 61.0218519,71.543925 C60.0133333,70.3508 59.4922222,69.4948625 59.3885185,69.3133 L59.3651852,69.2873625 C58.507037,68.638925 58.2218519,67.4458 58.7403704,66.51205 C61.4625926,61.376425 64.2133333,57.4598625 66.3885185,54.7623625 C59.232963,55.09955 52.4662963,56.500175 46.27,58.7308 C47.67,63.0883 48.3466667,65.7858 48.6577778,67.2123625 C48.8107407,67.9386125 48.8625926,68.6908 48.7614815,69.41705 C48.0588889,73.826425 45.8811111,74.345175 43.9625926,73.8523625 C40.0737037,76.1348625 28.0207407,84.408925 28.1996296,99.452675 C28.3033333,108.974331 34.3985185,116.51955 40.0737037,121.525488 C48.8107407,125.493925 58.9996296,127.779019 69.8885185,127.779019 C72.2218519,127.779019 74.5292593,127.675269 76.8107407,127.465175 C76.5774074,123.652363 76.6551852,119.1133 77.8737037,116.260175 C79.9737037,111.33205 87.2588889,107.0783 89.1514815,106.0408 C86.2218519,104.354863 85.6514815,101.423925 86.1959259,99.08955 C87.0255556,95.5879875 92.5996296,93.5648625 94.6477778,90.5042375 C96.67,87.417675 98.0440741,83.8383 100.95037,82.3858 C101.621852,82.0486125 102.295926,81.8411125 102.918148,81.7373625 C105.458889,81.24455 108.051481,82.541425 109.192222,84.8758 C109.295926,85.0573625 109.376296,85.238925 109.425556,85.446425 C111.217037,83.8383 114.429259,80.570175 114.895926,77.2761125 C115.181111,75.3308 114.74037,73.15205 114.17,71.28455" id="Fill-99" fill="#DF3D40"></path>
                <path d="M105.04563,70.0654875 C105.04563,71.28455 104.239333,72.4258 102.997481,72.8148625 L94.2319259,75.486425 L87.9863704,77.4058 C86.7937778,77.768925 85.5467407,77.3279875 84.8493333,76.3683 C84.6678519,76.108925 84.5097037,75.797675 84.4085926,75.486425 C84.3308148,75.2011125 84.2763704,74.9158 84.2763704,74.656425 C84.2763704,73.4373625 85.0826667,72.2961125 86.3011852,71.90705 L100.998593,67.4198625 L101.33563,67.3161125 C101.439333,67.290175 101.568963,67.2642375 101.672667,67.2383 C103.072667,66.978925 104.472667,67.808925 104.913407,69.2354875 C104.991185,69.5208 105.04563,69.8061125 105.04563,70.0654875" id="Fill-101" fill="#4BAB03"></path>
                <path d="M69.3443333,109.023613 C67.8924815,110.268613 65.248037,112.291738 61.9813704,113.82205 C59.5184074,114.9633 56.6924815,115.7933 53.7887778,115.767363 C49.4098889,115.715488 45.3887778,113.432988 42.4850741,111.12455 C39.6876667,108.971738 37.8961852,106.792988 37.6887778,106.533613 C38.673963,107.441425 40.3850741,108.686425 43.1591481,109.67205 C45.5702593,110.527988 48.7617407,111.202363 52.9850741,111.33205 C56.2258148,111.409863 58.9998889,111.2283 61.3591481,110.942988 C65.0406296,110.476113 67.6850741,109.67205 69.3443333,109.023613" id="Fill-103" fill="#A62740"></path>
                <path d="M69.8633704,108.790694 C69.7052222,108.868506 69.5263333,108.946319 69.3448519,109.024131 C67.6855926,109.672569 65.0411481,110.474038 61.3596667,110.943506 C60.7892963,108.427569 60.0633704,105.911631 59.130037,103.888506 C57.755963,100.879756 55.9411481,98.9059125 53.6337407,99.4506 C51.6115185,99.9460063 49.8226296,101.087256 48.3163333,102.487881 C45.9596667,104.718506 44.2226296,107.571631 43.1596667,109.672569 C40.3855926,108.686944 38.6744815,107.43935 37.6892963,106.534131 L37.6633704,106.508194 C36.9115185,105.833819 36.8337407,104.692569 37.430037,103.888506 C39.7633704,100.747475 43.9892963,97.3781938 43.9892963,97.3781938 C43.9892963,97.3781938 53.4781852,89.7525688 59.8792963,94.2138188 C60.4004074,94.5769438 60.9189259,94.9660063 61.4115185,95.3810063 C64.4707778,97.9228813 67.193,101.372569 69.0570741,103.989663 C69.7052222,104.900069 70.2496667,105.704131 70.6670741,106.352569 C71.2374444,107.23185 70.8485556,108.401631 69.8633704,108.790694" id="Fill-105" fill="#FDE96E"></path>
                <path d="M109.787741,91.6198094 C108.154407,98.0263719 103.542185,107.519497 95.2692222,107.441684 C92.5729259,107.415747 90.5792222,106.871059 89.1507037,106.041059 C86.2210741,104.355122 85.6507037,101.424184 86.1951481,99.0898094 C87.0273704,95.5882469 92.5988519,93.5651219 94.647,90.5044969 C96.6692222,87.4179344 98.0458889,83.8385594 100.949593,82.3860594 C101.623667,82.0488719 102.295148,81.8413719 102.919963,81.7376219 C105.458111,81.2448094 108.050704,82.5416844 109.194037,84.8760594 C109.297741,85.0576219 109.375519,85.2391844 109.424778,85.4466844 C110.098852,87.0029344 110.435889,89.0779344 109.787741,91.6198094" id="Fill-107" fill="#FFFFFF"></path>
                <path d="M126.875,94.3691844 C120.523148,111.980747 100.84537,125.312622 76.8094444,127.465434 C76.5787037,123.652622 76.6564815,119.113559 77.875,116.260434 C79.9724074,111.332309 87.2601852,107.078559 89.1501852,106.041059 C90.5787037,106.871059 92.575,107.415747 95.2712963,107.441684 C103.541667,107.519497 108.153889,98.0263719 109.787222,91.6198094 C110.43537,89.0779344 110.098333,87.0029344 109.426852,85.4466844 C111.215741,83.8385594 114.427963,80.5704344 114.897222,77.2763719 C115.179815,75.3310594 114.739074,73.1523094 114.171296,71.2848094 C120.860185,77.7432469 125.420556,85.6541844 126.875,94.3691844" id="Fill-109" fill="#4BAB03"></path>
                <path d="M139.655704,84.6161656 C139.42237,88.5586656 138.953111,92.4233531 138.28163,96.1842906 C138.28163,96.2102281 138.28163,96.2621031 138.255704,96.2880406 C135.507556,106.925009 128.870519,116.444072 119.563111,123.888134 C106.911259,134.001166 89.3334815,140.278041 69.889037,140.278041 C50.4445926,140.278041 32.8927407,134.001166 20.2408889,123.911478 C20.214963,123.888134 20.214963,123.859603 20.189037,123.859603 C9.53348148,115.300228 2.37792593,104.017416 0.589037037,91.4377281 C0.277925926,89.3886656 0.12237037,87.2877281 0.12237037,85.1608531 C0.12237037,82.1780406 0.433481481,79.2730406 1.00385185,76.4199156 C1.08162963,76.0827281 1.13348148,75.7714781 1.21125926,75.4342906 C1.34088889,74.8896031 1.47051852,74.3189781 1.62607407,73.7742906 C1.78162963,73.2296031 1.93718519,72.6849156 2.09274074,72.1402281 C2.22237037,71.6733531 2.37792593,71.2064781 2.53348148,70.7655406 C3.18162963,68.8721031 3.95940741,67.0046031 4.84088889,65.2149156 C5.28162963,64.3071031 5.7482963,63.4252281 6.24088889,62.5692906 C7.17422222,60.9092906 8.21125926,59.3271031 9.352,57.7708531 C9.79274074,57.1742906 10.2334815,56.6036656 10.6742222,56.0330406 C11.5297778,54.9436656 12.4371852,53.8802281 13.3964444,52.8427281 C13.9408889,52.2461656 14.5086667,51.6496031 15.1075556,51.0530406 C17.1557037,51.1049156 20.4482963,51.6496031 23.0408889,53.9839781 C16.9223704,60.0792906 12.7482963,67.4196031 11.2964444,75.4602281 C10.9075556,77.5871031 10.7001481,79.7399156 10.7001481,81.9446031 C10.7001481,86.2502281 11.4779259,90.4261656 12.9297778,94.3686656 C13.3445926,95.5877281 13.8605185,96.7808531 14.4334815,97.9739781 L14.4334815,97.9999156 C19.2297778,107.933978 28.3816296,116.259916 40.0742222,121.525228 C48.8112593,125.493666 59.0001481,127.778759 69.889037,127.778759 C72.2223704,127.778759 74.5297778,127.675009 76.8112593,127.467509 C100.844593,125.312103 120.52237,111.980228 126.874222,94.3686656 C128.326074,90.4261656 129.103852,86.2502281 129.103852,81.9446031 C129.103852,75.7714781 127.52237,69.8836656 124.644593,64.5146031 C115.803852,47.8627281 94.6223704,36.1389781 69.889037,36.1389781 C59.1038519,36.1389781 49.0186667,38.3696031 40.3334815,42.2602281 C39.5297778,40.2111656 38.6742222,38.2139781 37.7668148,36.2686656 C47.3853333,32.3002281 58.3001481,30.0696031 69.889037,30.0696031 C108.207556,30.0696031 139.292741,54.4508531 139.655704,84.6161656" id="Fill-111" fill="#E5EBF7"></path>
                <path d="M27.9665556,69.1841312 C19.9813704,75.9538187 14.5628519,84.6688187 12.9295185,94.3694437 C11.4776667,90.4269437 10.6998889,86.2510062 10.6998889,81.9453812 C10.6998889,79.7406938 10.9072963,77.5878812 11.2961852,75.4610062 C12.748037,67.4203812 16.9221111,60.0800687 23.0406296,53.9847562 C23.3776667,54.2700687 23.6887778,54.5813187 23.973963,54.9185062 C24.8813704,55.9819438 25.6072963,57.3825688 26.1517407,58.9128813 C27.448037,62.4922562 27.8628519,66.8238188 27.9665556,69.1841312" id="Fill-113" fill="#93B5FE"></path>
                <path d="M40.0737037,121.526266 C28.3811111,116.260953 19.2292593,107.935016 14.432963,98.0009531 L14.432963,97.9750156 C13.8625926,96.7818906 13.3440741,95.5887656 12.9292593,94.3697031 C14.5625926,84.6690781 19.9811111,75.9540781 27.9662963,69.1843906 C30.5096296,67.0315781 33.307037,65.0603281 36.3144444,63.3484531 C36.832963,64.2562656 37.2996296,65.0862656 37.6885185,65.8384531 L39.8922222,70.4293906 C40.5662963,71.8040781 41.6551852,72.9453281 43.0551852,73.5418906 C43.3403704,73.6715781 43.6514815,73.7753281 43.9625926,73.8531406 C40.0737037,76.1356406 28.0207407,84.4097031 28.1996296,99.4508594 C28.3033333,108.972516 34.3985185,116.517734 40.0737037,121.526266" id="Fill-115" fill="#A42B40"></path>
                <path d="M72.4305556,163.829291 L72.402037,163.829291 C71.575,163.855228 70.7194444,163.883759 69.8898148,163.883759 C68.9538889,163.883759 68.0231481,163.855228 67.1131481,163.803353 C65.6872222,163.751478 64.2638889,163.621791 62.837963,163.442822 C62.5009259,163.388353 62.1638889,163.362416 61.8242593,163.310541 C61.2305556,163.235322 60.6057407,163.154916 60.012037,163.025228 C59.4131481,162.921478 58.8194444,162.817728 58.2231481,162.690634 C57.6527778,162.586884 57.0824074,162.454603 56.5094444,162.324916 C55.8898148,162.169291 55.2935185,162.013666 54.6687037,161.858041 C53.9168519,161.650541 53.1935185,161.443041 52.4416667,161.209603 C51.6353704,160.952822 50.8601852,160.690853 50.0824074,160.405541 C49.2761111,160.120228 48.5009259,159.834916 47.7231481,159.523666 C46.1935185,158.903759 44.6638889,158.200853 43.1601852,157.448666 C41.6564815,156.696478 40.202037,155.866478 38.7527778,155.013134 C36.6009259,153.687728 34.5009259,152.261166 32.4527778,150.678978 C30.4305556,149.122728 28.4601852,147.410853 26.5675926,145.621166 C25.3231481,144.402103 24.102037,143.157103 22.9094444,141.860228 C21.7168519,140.563353 20.5787037,139.188666 19.4612963,137.788041 C18.9168519,137.113666 18.3724074,136.387416 17.827963,135.663759 C17.1305556,134.704072 16.427963,133.718447 15.7564815,132.704291 C15.2612963,131.978041 14.7972222,131.251791 14.3305556,130.525541 C14.1231481,130.214291 13.9157407,129.877103 13.7083333,129.539916 C13.2675926,128.813666 12.8527778,128.087416 12.412037,127.361166 C11.3231481,125.467728 10.312037,123.522416 9.32425926,121.525228 C8.52314815,119.839291 7.7712963,118.101478 7.04277778,116.337728 C14.1724074,128.087416 31.4157407,147.776572 66.6724074,148.111166 C66.6724074,148.111166 74.4501852,147.073666 78.1057407,153.067822 C80.7527778,157.399384 77.2009259,161.520853 72.4305556,163.829291" id="Fill-117" fill="#CADAFD"></path>
                <path d="M78.9625926,77.042675 C71.9625926,77.042675 65.2737037,73.3854875 61.3848148,70.7398625 C62.0848148,69.1058 63.0207407,67.0308 64.132963,64.903925 C66.2614815,60.7798625 69.007037,56.4223625 71.7551852,54.7104875 L71.7811111,54.7104875 C72.3255556,54.3473625 72.8959259,54.113925 73.4403704,54.010175 C74.6588889,53.7767375 75.6440741,54.1398625 76.4477778,54.9958 L76.4737037,54.9958 C76.4996296,55.0217375 76.5281481,55.0736125 76.5281481,55.0736125 C79.3255556,58.160175 79.6366667,67.186425 78.9625926,77.042675" id="Fill-119" fill="#FFC452"></path>
                <path d="M61.3588889,110.943766 C58.9996296,111.226484 56.2281481,111.410641 52.9874074,111.330234 C48.7614815,111.203141 45.57,110.528766 43.1588889,109.672828 C44.2244444,107.571891 45.9614815,104.718766 48.3181481,102.488141 C49.8218519,101.087516 51.6107407,99.9462656 53.6355556,99.4508594 C55.9403704,98.9061719 57.7551852,100.880016 59.1318519,103.888766 C60.0625926,105.911891 60.7885185,108.427828 61.3588889,110.943766" id="Fill-121" fill="#FFC452"></path>
            </g>
        </g>
    </g>
</svg>