<?xml version="1.0" encoding="utf-8"?>
<!-- Generator: Adobe Illustrator 24.0.0, SVG Export Plug-In . SVG Version: 6.00 Build 0)  -->
<svg version="1.1" id="图层_1" xmlns="http://www.w3.org/2000/svg" xmlns:xlink="http://www.w3.org/1999/xlink" x="0px" y="0px"
	 viewBox="0 0 1024 1024" style="enable-background:new 0 0 1024 1024;" xml:space="preserve">
<style type="text/css">
	.st0{fill:#EEB206;}
	.st1{fill:#FFFFFF;}
	.st2{fill:#A8DBF3;}
	.st3{fill:#16AAA9;}
	.st4{fill:#231F20;}
	.st5{fill:none;stroke:#231F20;stroke-width:13.3555;stroke-linecap:round;stroke-miterlimit:10;}
	.st6{fill:#F8B906;}
	.st7{fill:#EF8406;}
</style>
<g>
	<ellipse class="st0" cx="512.45" cy="528.3" rx="478.57" ry="474.7"/>
</g>
<g>
	<path class="st1" d="M692.83,158.37v742.24H310.38c-22.35,0-40.46-18.12-40.46-40.46V198.83c0-22.35,18.12-40.46,40.46-40.46
		H692.83z"/>
</g>
<g>
	<path class="st2" d="M752.85,194.81v677.05c0,18.34-14.25,33.2-31.84,33.2H326.52c-21.43,0-38.8-18.12-38.8-40.46V202.07
		c0-22.35,17.37-40.46,38.8-40.46h394.49C738.6,161.6,752.85,176.47,752.85,194.81z"/>
</g>
<g>
	<rect x="679.4" y="158.38" class="st3" width="26.71" height="742.23"/>
</g>
<g>
	<path class="st3" d="M755.08,192.59v677.04c0,18.34-7.26,33.21-16.21,33.21h-26.08c8.95,0,16.21-14.87,16.21-33.21V192.59
		c0-18.34-7.26-33.21-16.21-33.21h26.08C747.82,159.38,755.08,174.25,755.08,192.59z"/>
</g>
<g>
	<path class="st4" d="M269.91,553.36c-3.69,0-6.68-2.99-6.68-6.68v-42.29c0-3.69,2.99-6.68,6.68-6.68s6.68,2.99,6.68,6.68v42.29
		C276.59,550.38,273.6,553.36,269.91,553.36z"/>
</g>
<g>
	<path class="st4" d="M721.79,907.29H310.38c-25.99,0-47.14-21.15-47.14-47.14c0-3.69,2.99-6.68,6.68-6.68s6.68,2.99,6.68,6.68
		c0,18.63,15.16,33.78,33.78,33.78h411.41c14.63,0,26.53-11.9,26.53-26.53V190.36c0-14.63-11.9-26.53-26.53-26.53H310.38
		c-18.63,0-33.78,15.16-33.78,33.79c0,3.69-2.99,6.68-6.68,6.68s-6.68-2.99-6.68-6.68c0-25.99,21.15-47.14,47.14-47.14h411.41
		c21.99,0,39.88,17.89,39.88,39.88V867.4C761.67,889.39,743.78,907.29,721.79,907.29z"/>
</g>
<g>
	<rect x="692.83" y="239.23" class="st1" width="60.94" height="24.38"/>
</g>
<g>
	<rect x="694.05" y="350.14" class="st1" width="60.94" height="24.38"/>
</g>
<g>
	<rect x="694.05" y="459.83" class="st1" width="60.94" height="24.38"/>
</g>
<g>
	<rect x="694.05" y="564.65" class="st1" width="60.94" height="24.38"/>
</g>
<g>
	<rect x="694.05" y="674.34" class="st1" width="60.94" height="24.38"/>
</g>
<g>
	<rect x="694.05" y="784.03" class="st1" width="60.94" height="24.38"/>
</g>
<g>
	<path class="st5" d="M269.91,488.66"/>
</g>
<g>
	<path class="st4" d="M269.91,548.91c-3.69,0-6.68-2.99-6.68-6.68v-25.23c0-3.69,2.99-6.68,6.68-6.68s6.68,2.99,6.68,6.68v25.23
		C276.59,545.92,273.6,548.91,269.91,548.91z"/>
</g>
<g>
	<path class="st5" d="M269.83,542.23"/>
</g>
<g>
	<path class="st5" d="M269.91,581.29"/>
</g>
<g>
	<path class="st4" d="M699.51,907.29H310.38c-25.99,0-47.14-21.15-47.14-47.14V581.29c0-3.69,2.99-6.68,6.68-6.68
		s6.68,2.99,6.68,6.68v278.86c0,18.63,15.16,33.78,33.78,33.78h375.78V165.05H310.38c-18.63,0-33.78,15.16-33.78,33.79v273.19
		c0,3.69-2.99,6.68-6.68,6.68s-6.68-2.99-6.68-6.68V198.83c0-25.99,21.15-47.14,47.14-47.14h389.13V907.29z"/>
</g>
<g>
	<path class="st5" d="M269.91,472.02"/>
</g>
<g>
	<path class="st5" d="M269.91,488.66"/>
</g>
<g>
	<rect x="706.19" y="245.91" class="st6" width="46.66" height="24.38"/>
</g>
<g>
	<rect x="737.27" y="243.69" class="st7" width="11.13" height="24.37"/>
</g>
<g>
	<rect x="708.33" y="354.59" class="st6" width="51.2" height="24.38"/>
</g>
<g>
	<rect x="737.27" y="354.99" class="st7" width="11.13" height="24.37"/>
</g>
<g>
	<rect x="708.33" y="464.28" class="st6" width="46.66" height="24.38"/>
</g>
<g>
	<rect x="737.27" y="464.06" class="st7" width="11.13" height="24.37"/>
</g>
<g>
	<rect x="708.33" y="569.1" class="st6" width="51.11" height="24.38"/>
</g>
<g>
	<rect x="737.27" y="568.68" class="st7" width="11.13" height="24.37"/>
</g>
<g>
	<rect x="708.33" y="678.79" class="st6" width="46.66" height="24.38"/>
</g>
<g>
	<rect x="737.27" y="677.75" class="st7" width="11.13" height="24.37"/>
</g>
<g>
	<rect x="708.33" y="788.48" class="st6" width="46.66" height="24.38"/>
</g>
<g>
	<rect x="739.5" y="789.04" class="st7" width="11.13" height="24.37"/>
</g>
<g>
	<path class="st4" d="M759.33,273.62h-72.07v-35.51h72.07V273.62z M698.4,262.5h49.81v-13.25H698.4V262.5z"/>
</g>
<g>
	<path class="st4" d="M760.55,384.53h-72.07v-35.51h72.07V384.53z M699.62,373.4h49.81v-13.25h-49.81V373.4z"/>
</g>
<g>
	<path class="st4" d="M760.55,494.22h-72.07v-35.51h72.07V494.22z M699.62,483.09h49.81v-13.25h-49.81V483.09z"/>
</g>
<g>
	<path class="st4" d="M760.55,599.04h-72.07v-35.5h72.07V599.04z M699.62,587.91h49.81v-13.25h-49.81V587.91z"/>
</g>
<g>
	<path class="st4" d="M760.55,708.73h-72.07v-35.5h72.07V708.73z M699.62,697.6h49.81v-13.25h-49.81V697.6z"/>
</g>
<g>
	<path class="st1" d="M409.11,586.75h-80.45c-9.13,0-16.54-7.4-16.54-16.54V218.21c0-9.13,7.4-16.54,16.54-16.54h80.45
		c9.13,0,16.54,7.4,16.54,16.54v352.01C425.64,579.35,418.24,586.75,409.11,586.75z"/>
</g>
<g>
	<path class="st6" d="M420.24,586.75h-80.45c-9.13,0-16.54-7.4-16.54-16.54V218.21c0-9.13,7.4-16.54,16.54-16.54h80.45
		c9.13,0,16.54,7.4,16.54,16.54v352.01C436.77,579.35,429.37,586.75,420.24,586.75z"/>
</g>
<g>
	<path class="st7" d="M432.32,218.21v352.01c0,9.13-7.41,16.54-16.54,16.54h-22.26c9.13,0,16.54-7.41,16.54-16.54V218.21
		c0-9.13-7.41-16.54-16.54-16.54h22.26C424.91,201.67,432.32,209.08,432.32,218.21z"/>
</g>
<g>
	<path class="st1" d="M380.17,557.82h-22.58c-9.13,0-16.54-7.4-16.54-16.54V247.14c0-9.13,7.4-16.54,16.54-16.54h22.58
		c9.13,0,16.54,7.4,16.54,16.54v294.14C396.7,550.41,389.3,557.82,380.17,557.82z"/>
</g>
<g>
	<path class="st6" d="M380.17,557.82h-22.58c-9.13,0-16.54-7.4-16.54-16.54V247.14c0-9.13,7.4-16.54,16.54-16.54h22.58
		c9.13,0,16.54,7.4,16.54,16.54v294.14C396.7,550.41,389.3,557.82,380.17,557.82z"/>
</g>
<g>
	<path class="st7" d="M396.7,247.14v294.13c0,9.13-7.41,16.54-16.54,16.54h-17.81c9.13,0,16.54-7.41,16.54-16.54V247.14
		c0-9.13-7.41-16.54-16.54-16.54h17.81C389.29,230.61,396.7,238.02,396.7,247.14z"/>
</g>
<g>
	<path class="st4" d="M760.55,818.42h-72.07v-35.5h72.07V818.42z M699.62,807.29h49.81v-13.25h-49.81V807.29z"/>
</g>
<g>
	<path class="st5" d="M312.12,408.68"/>
</g>
<g>
	<path class="st4" d="M409.11,593.43h-80.45c-12.8,0-23.21-10.41-23.21-23.21v-132.6c0-3.69,2.99-6.68,6.68-6.68
		s6.68,2.99,6.68,6.68v132.6c0,5.44,4.42,9.86,9.86,9.86h80.45c5.44,0,9.86-4.42,9.86-9.86V218.21c0-5.44-4.42-9.86-9.86-9.86
		h-80.45c-5.44,0-9.86,4.42-9.86,9.86v45.4c0,3.69-2.99,6.68-6.68,6.68s-6.68-2.99-6.68-6.68v-45.4c0-12.8,10.41-23.21,23.21-23.21
		h80.45c12.8,0,23.21,10.41,23.21,23.21v352.01C432.32,583.02,421.91,593.43,409.11,593.43z"/>
</g>
<g>
	<path class="st5" d="M312.12,263.61"/>
</g>
<g>
	<path class="st4" d="M312.12,415.36c-3.69,0-6.68-2.99-6.68-6.68V298.5c0-3.69,2.99-6.68,6.68-6.68s6.68,2.99,6.68,6.68v110.18
		C318.8,412.37,315.81,415.36,312.12,415.36z"/>
</g>
<g>
	<path class="st4" d="M380.17,564.49h-22.58c-12.8,0-23.21-10.41-23.21-23.21V247.14c0-12.8,10.41-23.21,23.21-23.21h22.58
		c12.8,0,23.21,10.41,23.21,23.21v294.14C403.38,554.08,392.97,564.49,380.17,564.49z M357.59,237.28c-5.44,0-9.86,4.42-9.86,9.86
		v294.14c0,5.44,4.42,9.86,9.86,9.86h22.58c5.44,0,9.86-4.42,9.86-9.86V247.14c0-5.44-4.42-9.86-9.86-9.86H357.59z"/>
</g>
</svg>
