<svg id="Layer_1" data-name="Layer 1" xmlns="http://www.w3.org/2000/svg" xmlns:xlink="http://www.w3.org/1999/xlink" viewBox="0 0 295.32 227.6"><defs><linearGradient id="linear-gradient" x1="-1412.76" y1="128.3" x2="-1515.5" y2="215.82" gradientTransform="translate(1590.6)" gradientUnits="userSpaceOnUse"><stop offset="0.01"/><stop offset="0.13" stop-opacity="0.69"/><stop offset="0.25" stop-opacity="0.32"/><stop offset="1" stop-opacity="0"/></linearGradient><linearGradient id="linear-gradient-2" x1="88.83" y1="204.76" x2="243.55" y2="61.79" gradientTransform="matrix(1, 0, 0, 1, 0, 0)" xlink:href="#linear-gradient"/><linearGradient id="linear-gradient-3" x1="171.16" y1="158.61" x2="199.07" y2="420.07" gradientUnits="userSpaceOnUse"><stop offset="0.01"/><stop offset="0.08" stop-opacity="0.69"/><stop offset="0.21" stop-opacity="0.32"/><stop offset="1" stop-opacity="0"/></linearGradient><linearGradient id="linear-gradient-4" x1="2632.75" y1="451.95" x2="2755.76" y2="550.2" gradientTransform="matrix(-1.09, 0, 0, 1, 3152.05, -359.14)" gradientUnits="userSpaceOnUse"><stop offset="0" stop-color="#fff"/><stop offset="1" stop-color="#cbcbcb"/></linearGradient><linearGradient id="linear-gradient-5" x1="2693.25" y1="412.82" x2="2693.19" y2="421.05" gradientTransform="matrix(-1.09, 0, 0, 1, 3136.28, -386.82)" xlink:href="#linear-gradient-4"/><linearGradient id="linear-gradient-6" x1="2701.68" y1="413.8" x2="2702.13" y2="419.83" gradientTransform="matrix(-1.09, -0.01, -0.01, 1, 3156.03, -330.46)" xlink:href="#linear-gradient-4"/><linearGradient id="linear-gradient-7" x1="-174.64" y1="125.64" x2="1050.38" y2="185.86" gradientTransform="matrix(1, 0, 0, 1, 0, 0)" xlink:href="#linear-gradient"/><linearGradient id="linear-gradient-8" x1="83.28" y1="66.48" x2="139.1" y2="323.53" xlink:href="#linear-gradient-3"/><linearGradient id="linear-gradient-9" x1="104.01" y1="188.48" x2="205.2" y2="184.89" gradientTransform="matrix(1, 0, 0, 1, 0, 0)" xlink:href="#linear-gradient"/><linearGradient id="linear-gradient-10" x1="107.9" y1="107.93" x2="138.1" y2="123.92" gradientTransform="matrix(1, 0, 0, 1, 0, 0)" xlink:href="#linear-gradient"/><linearGradient id="linear-gradient-11" x1="59.88" y1="178.84" x2="179.38" y2="205.24" gradientTransform="matrix(1, 0, 0, 1, 0, 0)" xlink:href="#linear-gradient"/></defs><title>10</title><path d="M143.39,34.15a99.49,99.49,0,0,0-20-5.41C97.9,24.71,70,32.18,52.61,51.21,43,61.74,37,75.05,32.14,88.46c-10.43,28.75-16.4,58.5-16.37,89A68.48,68.48,0,0,0,35.39,225c17.56,17.7,43.53,24.36,68.42,25.67s49.86-1.95,74.75-.61c23.55,1.27,47,6.66,70.51,4.86s48.43-12.86,57.73-34.54c10.08-23.52,1.74-64.68-18.3-80.56-22.61-17.91-50.85-27.41-72.52-46.55-9.52-8.39-17.33-18.52-26.17-27.62C176.68,52.16,160.87,40.84,143.39,34.15Z" transform="translate(-15.77 -27.68)" fill="#536dfe" opacity="0.18" style="isolation:isolate"/><path d="M107.39,130.7c.07,2.57,1.34,4.93,2.61,7.17,5.74,10.15,12.19,20.15,21.09,27.69,13.09,11.07,30.23,15.85,46.79,20.32-1.48-.72-3.26-8.35-3.92-10-1.28-3.28-2.48-6.6-3.71-9.9-1.94-5.22-6-9.42-10-13.26A79.21,79.21,0,0,0,128.34,134,75.11,75.11,0,0,0,107.39,130.7Z" transform="translate(-15.77 -27.68)" fill="#536dfe"/><path d="M107.39,130.7c.07,2.57,1.34,4.93,2.61,7.17,5.74,10.15,12.19,20.15,21.09,27.69,13.09,11.07,30.23,15.85,46.79,20.32-1.48-.72-3.26-8.35-3.92-10-1.28-3.28-2.48-6.6-3.71-9.9-1.94-5.22-6-9.42-10-13.26A79.21,79.21,0,0,0,128.34,134,75.11,75.11,0,0,0,107.39,130.7Z" transform="translate(-15.77 -27.68)" fill="url(#linear-gradient)"/><path d="M172.17,136.38c-1.35-9.44-2.74-19-6.54-27.77s-10.39-16.72-19.33-20q-.39,20.3-.79,40.58c-.15,7.82-.28,15.78,2,23.27,3.94,13.12,17.58,28.52,30.73,32.86,2-6.31-1.32-15.86-2.25-22.4Z" transform="translate(-15.77 -27.68)" fill="#536dfe"/><path d="M172.17,136.38c-1.35-9.44-2.74-19-6.54-27.77s-10.39-16.72-19.33-20q-.39,20.3-.79,40.58c-.15,7.82-.28,15.78,2,23.27,3.94,13.12,17.58,28.52,30.73,32.86,2-6.31-1.32-15.86-2.25-22.4Z" transform="translate(-15.77 -27.68)" fill="url(#linear-gradient-2)"/><path d="M243.5,223.77c-55.81,7.16-112.36,1.66-168.63,1.82-4.07,0-9.65,1.69-9,5.71,32.73,7.73,66.66,8.34,100.28,8.9l61.19,1c14,.23,28,.47,41.95-.33,5.21-.29,10.54-.76,15.22-3.05,13.18-6.45,6.65-14.92-4.71-16.35C267.73,220,255.44,222.24,243.5,223.77Z" transform="translate(-15.77 -27.68)" fill="url(#linear-gradient-3)"/><path d="M162.05,67.93V219.39c0,6.55,5.81,11.85,13,11.83l69.26-.11c7.15,0,13-5.32,13-11.87V67.78c0-6.55-5.8-11.85-13-11.84L175,56.05C167.86,56.06,162.05,61.38,162.05,67.93Zm6.61.1c0-4,3.58-7.31,8-7.32h9.76v.9a4.89,4.89,0,0,0,5.11,4.66l37.22-.06a4.92,4.92,0,0,0,5.12-4.68v-.9h10.08c4.41,0,8,3.26,8,7.29v151c0,4-3.58,7.31-8,7.32l-67.29.1c-4.41,0-8-3.26-8-7.29Z" transform="translate(-15.77 -27.68)" fill="#536dfe"/><path d="M158.79,71V222.51c0,6.54,5.81,11.84,13,11.83l69.25-.11c7.15,0,13-5.33,13-11.88V70.89c0-6.54-5.81-11.85-13-11.83l-69.25.1C164.6,59.18,158.79,64.5,158.79,71Zm6.61.11c0-4,3.58-7.31,8-7.32l9.76,0v.9a4.91,4.91,0,0,0,5.12,4.67l37.22-.06a4.92,4.92,0,0,0,5.11-4.68v-.9l10.08,0c4.41,0,8,3.26,8,7.3v151c0,4-3.58,7.31-8,7.32l-67.29.11c-4.41,0-8-3.26-8-7.3Z" transform="translate(-15.77 -27.68)" fill="#fff"/><path d="M165.4,71.15v151c0,4,3.58,7.3,8,7.3l67.29-.11c4.41,0,8-3.28,8-7.32V71c0-4-3.58-7.31-8-7.3l-10.08,0v.9a4.92,4.92,0,0,1-5.11,4.68l-37.22.06a4.91,4.91,0,0,1-5.12-4.67v-.9l-9.76,0C169,63.84,165.4,67.11,165.4,71.15Z" transform="translate(-15.77 -27.68)" fill="none" stroke-miterlimit="10" stroke-width="0.46" stroke="url(#linear-gradient-4)"/><path d="M248.67,71v151c0,4-3.58,7.32-8,7.32l-9.87,0-19.77,0h-1.48l-19.33,0-16.84,0c-4.41,0-8-3.26-8-7.3v-151c0-4,3.58-7.32,8-7.32l9.77,0v.9a4.88,4.88,0,0,0,5.1,4.66l37.22-.05a4.92,4.92,0,0,0,5.12-4.69v-.89l10.08,0C245.09,63.71,248.67,67,248.67,71Z" transform="translate(-15.77 -27.68)" fill="#536dfe"/><polygon points="186.03 38.39 198.83 38.37 198.83 37.33 186.03 37.35 186.03 38.39" fill="url(#linear-gradient-5)"/><ellipse cx="198.43" cy="65.41" rx="1.39" ry="1.27" transform="translate(-16.39 -25.75) rotate(-0.56)" fill="url(#linear-gradient-6)"/><rect x="155.51" y="111.13" width="7.88" height="87.55" rx="3.62" fill="#536dfe"/><rect x="58.33" y="79.85" width="80.86" height="114.41" rx="7.17" fill="#536dfe"/><rect x="57.02" y="81.81" width="80.86" height="114.41" rx="7.17" fill="url(#linear-gradient-7)"/><rect x="54.17" y="85.05" width="80.86" height="114.41" rx="7.17" fill="#fff"/><path d="M150.8,161.65V220a7.18,7.18,0,0,1-7.18,7.17H77.11A7.17,7.17,0,0,1,69.94,220V189.42C124.09,201.44,150.8,161.65,150.8,161.65Z" transform="translate(-15.77 -27.68)" fill="url(#linear-gradient-8)"/><path d="M133.26,145.51v93.15h-8.49V145.51a4.8,4.8,0,0,1,.13-1.06h0a4.93,4.93,0,0,1,.39-1l.14-.26,3.59-6.8,3.73,7.06a4.75,4.75,0,0,1,.38,1A4.27,4.27,0,0,1,133.26,145.51Z" transform="translate(-15.77 -27.68)" fill="#536dfe"/><path d="M133.26,145.51v93.15h-8.49V145.51a4.8,4.8,0,0,1,.13-1.06h0a4.93,4.93,0,0,1,.39-1l.14-.26,3.59-6.8,3.73,7.06a4.75,4.75,0,0,1,.38,1A4.27,4.27,0,0,1,133.26,145.51Z" transform="translate(-15.77 -27.68)" fill="url(#linear-gradient-9)"/><path d="M129,165.25V144.41h4.12v94.25H129V168.55c0-.92,0-1.84,0-2.76a1.24,1.24,0,0,1,.46-1.25,2.76,2.76,0,0,1,1.56-.7,3,3,0,0,0,1.16-.21,1.54,1.54,0,0,0,.63-1,4,4,0,0,0,.16-1.08.36.36,0,0,0-.09-.32.42.42,0,0,0-.22-.08,3.11,3.11,0,0,0-1.54.18,4.86,4.86,0,0,1-1.1.41,1.39,1.39,0,0,1-1.33-.62" transform="translate(-15.77 -27.68)" fill="#536dfe"/><path d="M133.13,144.45a7.16,7.16,0,0,1-8.23,0h0l.53-1.26,3.59-6.8,3.73,7.06A4.75,4.75,0,0,1,133.13,144.45Z" transform="translate(-15.77 -27.68)" fill="#536dfe"/><path d="M69.94,122.85a11.65,11.65,0,0,0-5.62,1.07A11.65,11.65,0,0,0,69.94,125v2.61c-4.19,0-8.41-1.14-8.41-3.68s4.22-3.68,8.41-3.68Z" transform="translate(-15.77 -27.68)" fill="#536dfe"/><path d="M78.33,123.92c0,2.54-4.21,3.68-8.39,3.68V125c3.33,0,5.39-.78,5.8-1.22a1.3,1.3,0,0,1,2.59.15Z" transform="translate(-15.77 -27.68)" fill="#536dfe"/><path d="M69.94,137.74a11.65,11.65,0,0,0-5.62,1.07,11.65,11.65,0,0,0,5.62,1.07v2.61c-4.19,0-8.41-1.14-8.41-3.68s4.22-3.68,8.41-3.68Z" transform="translate(-15.77 -27.68)" fill="#536dfe"/><path d="M78.33,138.81c0,2.54-4.21,3.68-8.39,3.68v-2.61c3.33,0,5.39-.78,5.8-1.22a1.3,1.3,0,0,1,2.59.15Z" transform="translate(-15.77 -27.68)" fill="#536dfe"/><path d="M69.94,152.62a11.61,11.61,0,0,0-5.62,1.08,11.65,11.65,0,0,0,5.62,1.07v2.61c-4.19,0-8.41-1.14-8.41-3.68S65.75,150,69.94,150Z" transform="translate(-15.77 -27.68)" fill="#536dfe"/><path d="M78.33,153.7c0,2.54-4.21,3.68-8.39,3.68v-2.61c3.33,0,5.39-.78,5.8-1.22a1.3,1.3,0,0,1,2.59.15Z" transform="translate(-15.77 -27.68)" fill="#536dfe"/><path d="M69.94,167.51a11.61,11.61,0,0,0-5.62,1.08,11.65,11.65,0,0,0,5.62,1.07v2.61c-4.19,0-8.41-1.14-8.41-3.68s4.22-3.68,8.41-3.68Z" transform="translate(-15.77 -27.68)" fill="#536dfe"/><path d="M78.33,168.59c0,2.54-4.21,3.68-8.39,3.68v-2.61c3.33,0,5.39-.78,5.8-1.22a1.3,1.3,0,0,1,2.59.15Z" transform="translate(-15.77 -27.68)" fill="#536dfe"/><path d="M69.94,182.4a11.61,11.61,0,0,0-5.62,1.08,11.78,11.78,0,0,0,5.62,1.07v2.61c-4.19,0-8.41-1.14-8.41-3.68s4.22-3.69,8.41-3.69Z" transform="translate(-15.77 -27.68)" fill="#536dfe"/><path d="M78.33,183.48c0,2.54-4.21,3.68-8.39,3.68v-2.61c3.33,0,5.39-.78,5.8-1.23a1.3,1.3,0,0,1,2.59.16Z" transform="translate(-15.77 -27.68)" fill="#536dfe"/><path d="M69.94,197.29a11.61,11.61,0,0,0-5.62,1.08,11.78,11.78,0,0,0,5.62,1.07v2.61c-4.19,0-8.41-1.14-8.41-3.68s4.22-3.69,8.41-3.69Z" transform="translate(-15.77 -27.68)" fill="#536dfe"/><path d="M78.33,198.37c0,2.54-4.21,3.68-8.39,3.68v-2.61c3.33,0,5.39-.78,5.8-1.23a1.3,1.3,0,0,1,2.59.16Z" transform="translate(-15.77 -27.68)" fill="#536dfe"/><path d="M69.94,212.18a11.61,11.61,0,0,0-5.62,1.08,11.78,11.78,0,0,0,5.62,1.07v2.61c-4.19,0-8.41-1.14-8.41-3.68s4.22-3.69,8.41-3.69Z" transform="translate(-15.77 -27.68)" fill="#536dfe"/><path d="M78.33,213.26c0,2.54-4.21,3.68-8.39,3.68v-2.61c3.33,0,5.39-.78,5.8-1.23a1.3,1.3,0,0,1,2.59.16Z" transform="translate(-15.77 -27.68)" fill="#536dfe"/><path d="M106.6,218.1a43.24,43.24,0,0,1-4.75,6.27,94.35,94.35,0,0,1-8.7,8c-1.51,1.3-3,2.61-4.46,4-1.2,1.14-2.73,1.92-3,3.68-.18,1,0,2.3-.79,3a1.92,1.92,0,0,1-2.11.15,4.54,4.54,0,0,1-1.57-1.57,2.52,2.52,0,0,1-.38-.77,1.91,1.91,0,0,1,0-.92c.32-1.46,1.45-2.56,2.43-3.68a24.89,24.89,0,0,0,2.39-3.2,17.58,17.58,0,0,1,2-2.43l5.78-6.51c2.07-2.33,4.2-4.76,5.14-7.73A12.12,12.12,0,0,1,99.85,213c1.48-2.16,4.93-2.48,7.2-1.46C109.81,212.83,107.71,216.33,106.6,218.1Z" transform="translate(-15.77 -27.68)" fill="#ffbbab"/><path d="M94.63,213.83s-1.5,13.08,0,20.15a56.13,56.13,0,0,1,1.17,13.25c-.49.68,0,1.69.7,2.15a4.72,4.72,0,0,0,2.44.53l3.44.12a1.4,1.4,0,0,0,1.14-.29c.45-.49,0-1.31-.6-1.6s-1.31-.31-1.87-.65c-1.08-.65-1.22-2.12-1.24-3.38l-.09-5.48c-.13-7.88-.25-15.8,1-23.58a2.76,2.76,0,0,0,0-1.07,2.64,2.64,0,0,0-1.38-1.39,5.77,5.77,0,0,0-2.07-.86,1.94,1.94,0,0,0-1.95.84" transform="translate(-15.77 -27.68)" fill="#ffbbab"/><path d="M113,165.36l1.93,1.06c.93.51,2,1.45,3,1.08,1.67-.65,3.38-2.31,4.85-3.35s3.18-2.3,4.76-3.48a3.93,3.93,0,0,0,1.07-1c.47-.78.48-1.93,1.3-2.33l.46,2L132.9,158a1.75,1.75,0,0,1,1-.28c.68.12,1,.95.91,1.64-.2,2.31-2.57,3.05-4.45,3.63a7,7,0,0,0-1.47.53,5.49,5.49,0,0,0-1,.75,28.14,28.14,0,0,0-4.62,4.7,23.26,23.26,0,0,1-2,2.47,6.21,6.21,0,0,1-2.21,2,3.9,3.9,0,0,1-2.09.08c-2.51-.47-4.83-2.18-6.8-3.73-.22-.17-.46-.44-.32-.68a.66.66,0,0,1,.32-.22,4.79,4.79,0,0,0,2-1.36A2.6,2.6,0,0,0,113,165.36Z" transform="translate(-15.77 -27.68)" fill="#ffbbab"/><path d="M108.4,152.61a2.48,2.48,0,0,1-1.81,1.25.89.89,0,0,0-.56.12.7.7,0,0,0-.13.59l.2,2.58a.94.94,0,0,1-.08.6,1,1,0,0,1-.62.35c-.94.26-2.09.46-2.75-.25a2.71,2.71,0,0,1-.54-1.42,28.16,28.16,0,0,1-.52-8.91,6.28,6.28,0,0,1,2.53-4.59c1.79-1.08,6.37-1.41,6.18,1.59a33.65,33.65,0,0,0-.39,3.62A7.24,7.24,0,0,1,108.4,152.61Z" transform="translate(-15.77 -27.68)" fill="#ffbbab"/><path d="M110.39,142.1a2.37,2.37,0,0,1,0,1.62,2.08,2.08,0,0,1-1.35.92c-1.35.37-2.8.27-4.12.69a1.21,1.21,0,0,0-.57.33,1.26,1.26,0,0,0-.19.63,27.13,27.13,0,0,0,.24,7.84,12.58,12.58,0,0,1-7.44-.09,1.89,1.89,0,0,1-1.52-1.59,13.81,13.81,0,0,1,1.32-11.07,5.51,5.51,0,0,1,4.66-3C104.68,137.91,109.54,138.24,110.39,142.1Z" transform="translate(-15.77 -27.68)" fill="#fc682d"/><path d="M107.44,184.51c-.2,6.39,2.13,12.4,3.87,18.55.77,2.67,1.62,5.42,1.33,8.18a1.62,1.62,0,0,1,0,.22c-8.43,2.43-17.67,3.64-25.83.4a70.06,70.06,0,0,0,1.38-13.08,23.6,23.6,0,0,1,.35-5.18c.66-2.91,2.54-5.38,4.5-7.63a8,8,0,0,0,1.82-2.75,7.66,7.66,0,0,0,.12-3,60.06,60.06,0,0,1-.24-9.94A24,24,0,0,1,97,161.62a11.6,11.6,0,0,1,2.25-3.35,5.85,5.85,0,0,1,3.57-1.74,3.86,3.86,0,0,1,3.51,1.63c2.05,3.16,5.47,3.87,8,6.71a.91.91,0,0,1,.29.51.94.94,0,0,1-.22.59c-.87,1.39-1.75,2.78-2.62,4.18a9.35,9.35,0,0,1-.92,1.25h0c-.31.32-.69.58-1,.9a6.67,6.67,0,0,0-1.44,3.5A56.45,56.45,0,0,0,107.44,184.51Z" transform="translate(-15.77 -27.68)" fill="#536dfe"/><path d="M104.82,248.42l-.85-.27a8.15,8.15,0,0,0-2.11-.47.74.74,0,0,0-.36.06.8.8,0,0,0-.32.38,1.78,1.78,0,0,1-.5.62,1.84,1.84,0,0,1-1.44,0,6.2,6.2,0,0,1-1.44-.52c-.45-.25-.83-.61-1.29-.83a1,1,0,0,0-.84-.06,1,1,0,0,0-.33.32,1.93,1.93,0,0,0-.42.7,2,2,0,0,0,0,.78,1.45,1.45,0,0,0,.19.65,1.41,1.41,0,0,0,1.08.4l4.16.26c1.3.08,2.6.16,3.91.14a8.48,8.48,0,0,0,2.13-.23c.1,0,.21-.06.24-.16a.28.28,0,0,0,0-.2,3.61,3.61,0,0,0-2.24-1.68" transform="translate(-15.77 -27.68)" fill="#536dfe"/><path d="M81.4,238.84c.11.41,0,.87.1,1.28A2.6,2.6,0,0,0,82,241l1,1.24a1.56,1.56,0,0,0,.41.4,1.7,1.7,0,0,0,1.36-.05.42.42,0,0,1,.38,0,.44.44,0,0,1,.13.23l.58,2a10.22,10.22,0,0,1,.39,2.58.74.74,0,0,1-.31.24c-.92.47-2.5-1.62-3.29-2.29a7,7,0,0,1-1.67-2.6c-.23-.51-.44-1-.64-1.54a5,5,0,0,1-.46-1.5.77.77,0,0,1,.42-.7C80.57,238.9,81.28,238.39,81.4,238.84Z" transform="translate(-15.77 -27.68)" fill="#536dfe"/><polygon points="111.54 111.92 114.95 111.92 113.25 108.69 111.54 111.92" fill="url(#linear-gradient-10)"/><path d="M112.64,211.24a4.44,4.44,0,0,1-3.7-.37c-1.93-1.21-2.7-3.62-3-5.87-.77-4.93-.31-10.27-2.91-14.53-.79-1.29-1.89-2.6-1.73-4.12s1.65-2.65,2.5-4a11,11,0,0,0,1.27-5c.29-3.25.58-6.51.88-9.76,0,.82,3.6,2.57,4.91,3.83-.31.32-.69.58-1,.9a6.67,6.67,0,0,0-1.44,3.5,56.45,56.45,0,0,0-.93,8.7c-.2,6.39,2.13,12.4,3.87,18.55C112.08,205.73,112.93,208.48,112.64,211.24Z" transform="translate(-15.77 -27.68)" fill="url(#linear-gradient-11)"/><path d="M230.81,229.39l-19.77,0h-1.48l-3.44-36.15,8.33.28,16.36.54S231.11,210.33,230.81,229.39Z" transform="translate(-15.77 -27.68)" fill="#473f47"/><path d="M214.71,190.83l-.26,2.73L211,229.42h-1.48l-19.33,0c-.32-27,2.23-42.56,2.23-42.56Z" transform="translate(-15.77 -27.68)" fill="#473f47"/><path d="M177.93,158.48c.13,2.38.9,4.47,3,5.15a2.74,2.74,0,0,0,.53.15c3.81.76,8.81-2.14,12.3-4.67a49.25,49.25,0,0,0,4.16-3.39V130.21l-18.54,19A29.29,29.29,0,0,0,177.93,158.48Z" transform="translate(-15.77 -27.68)" fill="#fff"/><path d="M193.6,159c0,1.19-.15,2.4-.15,3.6,0,6.59,1.53,13.39-.44,19.85-.44,1.44-1.06,3-.55,4.41a5.49,5.49,0,0,0,2.76,2.65c5.81,3.18,12.52,4.15,19.08,5.07,4.93.69,11.92,2.16,16.48-.5,1.94-1.13,2.6-3.24,3.22-5.34,2-6.68,2.55-13.87,3.07-20.79.07-.91.13-1.83.19-2.74q.57-9.47.38-18.94c-.09-4.58-.45-9.53-3.44-13-4-4.61-11.68-7.66-17.52-8.73a19.93,19.93,0,0,0-5.76-.32,24.35,24.35,0,0,0-7.8,2.65c-2.9,1.43-5.48,2.64-6.91,5.51A39.49,39.49,0,0,0,193,142.87a37.91,37.91,0,0,0-.18,10.26c.17,1.67.61,3.33.77,5C193.58,158.42,193.6,158.72,193.6,159Z" transform="translate(-15.77 -27.68)" fill="#fff"/><path d="M220.49,196.35c1.91.56,6.32-1.19,7.79-1.45.87-.15,1.67-.59,2.54-.8,4.36-1.09,4.88-13.35,5.31-16.65,1.13-8.72,2.87-17.75,3-26.5a29.26,29.26,0,0,0-1.16-10c-1.1-3.18-3.37-6.12-6.54-7.27-5.58-2-7.23,15.62-8,19.28l-4.19,19.94a44.87,44.87,0,0,0-1.14,7.45c-.15,3.49,1,6,1.86,9.08.51,1.74-.89,5.06-.2,6.35A1.22,1.22,0,0,0,220.49,196.35Z" transform="translate(-15.77 -27.68)" fill="#020202" opacity="0.1"/><path d="M207.07,119.11a4.25,4.25,0,0,0,2.69,1.35,14,14,0,0,0,2.59,0l.48,0a.49.49,0,0,1,.36.07.52.52,0,0,1,.15.38,29,29,0,0,1,.1,5.19h0c0,.31-.05.62-.08.93a1.81,1.81,0,0,0,.08,1,1.7,1.7,0,0,0,1.05.69,7.82,7.82,0,0,0,2.34.4,10.45,10.45,0,0,0,4.77-1.68,48.51,48.51,0,0,1,.47-8.85c.55-3.78,1.54-7.56,1.13-11.36A6.21,6.21,0,0,0,216,101.1a14.22,14.22,0,0,0-7.73,2.11,3,3,0,0,0-1.14,2.29c-.3,1.49-.54,3-.7,4.5-.19,1.73-.29,3.46-.32,5.19A5.88,5.88,0,0,0,207.07,119.11Z" transform="translate(-15.77 -27.68)" fill="#fdbaac"/><path d="M210.08,104.1c1.93.32,4,0,5.88.73,2.56,1,3.65,4.37,2.79,7,.74.27.88-1.06,1.45-1.6s1.86.18,2,1.11a5.62,5.62,0,0,1-.82,2.63,7.85,7.85,0,0,0-.34,5.17c.12.4.41.88.82.77s.69-.79.93-1.09A10.65,10.65,0,0,1,224,117.5c.91-.79,1.89-1.48,2.81-2.25,1.64-1.37,3.16-3.23,3.06-5.36a4.73,4.73,0,0,0-.84-2.42,5.43,5.43,0,0,0-1.59-1.54c-.26-.17-.56-.34-.61-.65a1.25,1.25,0,0,1,.06-.5A5.83,5.83,0,0,0,224.5,99a14.12,14.12,0,0,0-6.21-2.3c-1.43-.26-2.86-.46-4.3-.63a9.63,9.63,0,0,1-3.45-.81A9.64,9.64,0,0,1,211.68,93a11,11,0,0,0-2.89,1.33,4.53,4.53,0,0,1,.39-1.44,8.78,8.78,0,0,0-4.25,2.43,5.09,5.09,0,0,0-.15,5.75c1.11,1.75,2.86,2.45,4.78,2.91Z" transform="translate(-15.77 -27.68)" fill="#f86938"/><path d="M212.35,120.5l.48,0a.49.49,0,0,1,.36.07.52.52,0,0,1,.15.38,29,29,0,0,1,.1,5.19h0s5-1.26,4.79-7.37a29.32,29.32,0,0,1-5.85,1.74Z" transform="translate(-15.77 -27.68)" fill="#dea095"/><path d="M174.47,141.47A36.46,36.46,0,0,0,175.62,154a17.74,17.74,0,0,0,4.49,7.68,3.18,3.18,0,0,0,2.93.82,9.27,9.27,0,0,0,5-2.68c3.41-3.77,1.09-9.57,1.09-9.57s-7.06-11.11-8.63-11.56c-.85-.26-2.57.6-4,1.43C175.41,140.8,174.47,141.47,174.47,141.47Z" transform="translate(-15.77 -27.68)" fill="#fff"/><path d="M175.08,149.62a97.08,97.08,0,0,0,2.14,9.56,8.16,8.16,0,0,0,1.32,2.94c1.77,2.17,5,2,7.4,1.24.78-.25,8.1-3.5,7.8-4.25l0-.08-1.18-7.63c.1.62-3.07,2.78-3.49,3.1-2,1.53-4.94,4-7.3,1.65a8.22,8.22,0,0,1-1.71-3.09,69.91,69.91,0,0,1-3.35-12.32,1.81,1.81,0,0,0-2.36,1.09,5.25,5.25,0,0,0-.07,2.89C174.52,146.36,174.79,148,175.08,149.62Z" transform="translate(-15.77 -27.68)" fill="#020202" opacity="0.1"/><path d="M245.5,160.19c1.65,4.48,3.11,9.23,2.43,13.95-.81,5.73-4.62,10.52-8.29,15-2.88.43-6.66.37-7.68-2.36a6.49,6.49,0,0,1-.2-2.71l.41-5.91a22.15,22.15,0,0,0-.4-7.88c-.87-2.89-2.87-5.27-4.45-7.84a30.44,30.44,0,0,1-4.46-13.81c-.33-4.6,3.14-19.44,9.92-15,2.81,1.84,5.3,9.47,6.78,12.54Q242.88,153,245.5,160.19Z" transform="translate(-15.77 -27.68)" fill="#fff"/><path d="M230.22,193.17a1.35,1.35,0,0,0-.24.77c0,.27.34.52.58.4.69,2.12-.75,4.34-.75,6.58a1.69,1.69,0,0,0,.09.59,1.31,1.31,0,0,0,.49.6,2.64,2.64,0,0,0,2.53.16,6.5,6.5,0,0,0,2.11-1.58,10.84,10.84,0,0,0,2.86-4.29,13.18,13.18,0,0,0,.41-2.34l.69-5.83C234.61,186.8,232.25,189.7,230.22,193.17Z" transform="translate(-15.77 -27.68)" fill="#fdbaac"/><path d="M182.06,133.58a2.26,2.26,0,0,0,.17-1.2.78.78,0,0,0-.88-.64c-.24.06-.4.27-.61.39a1.39,1.39,0,0,1-1.57-.2,4.17,4.17,0,0,1-1-1.35,42,42,0,0,0-2.59-4,1.78,1.78,0,0,0-.83-.73,1.59,1.59,0,0,0-1.21.23,6,6,0,0,0-2.85,4.91,9.44,9.44,0,0,0,1.68,5.58A24.26,24.26,0,0,0,176.3,141a2.56,2.56,0,0,0,1.26.79C180.34,142.25,181.54,135.18,182.06,133.58Z" transform="translate(-15.77 -27.68)" fill="#fdbaac"/><rect x="154.91" y="52.73" width="29.5" height="25.99" fill="#fff" opacity="0.41"/></svg>