<svg xmlns="http://www.w3.org/2000/svg" viewBox="0 0 72.91 62.84"><defs><style>.cls-1{isolation:isolate;}.cls-2,.cls-3{fill:#3c3c3c;}.cls-3{opacity:0.2;mix-blend-mode:multiply;}.cls-4{fill:#d2d3d5;}.cls-5{fill:#fff;}.cls-6{fill:#f37721;}.cls-7{fill:#e8503c;}</style></defs><title>资源 11</title><g class="cls-1"><g id="图层_2" data-name="图层 2"><g id="Layer_1" data-name="Layer 1"><path class="cls-2" d="M1.46,57.15a5,5,0,0,1,0-7.07L50.08,1.46a5,5,0,0,1,7.07,7.08L8.54,57.15A5,5,0,0,1,1.46,57.15Z"/><path class="cls-3" d="M58.38,3.59a4.87,4.87,0,0,1-1.23,2.12L8.54,54.32A5,5,0,0,1,.23,52.2a5,5,0,0,0,8.31,4.95L57.15,8.54A5,5,0,0,0,58.38,3.59Z"/><path class="cls-4" d="M36.72,48.21a25.25,25.25,0,0,0,33.7-33.7A25.22,25.22,0,0,1,47.66,7.59,25.13,25.13,0,0,1,42.76.68,25.25,25.25,0,0,0,22.89,20.54,25.26,25.26,0,0,1,36.72,48.21Z"/><path class="cls-5" d="M32.79,10.6a20.86,20.86,0,0,1,12.32-6A26.15,26.15,0,0,1,42.74.67,25.28,25.28,0,0,0,22.87,20.54a25.58,25.58,0,0,1,3.94,2.37A20.92,20.92,0,0,1,32.79,10.6Z"/><path class="cls-5" d="M70.4,14.51a26,26,0,0,1-4.57.47A21,21,0,0,1,37.18,43.63a25.14,25.14,0,0,1-.48,4.57A25.25,25.25,0,0,0,70.4,14.51Z"/><path class="cls-6" d="M55.15,6.75a2.44,2.44,0,1,1,0-3.45A2.44,2.44,0,0,1,55.15,6.75Z"/><path class="cls-7" d="M37.47,49.27c3.53,2.25,6.69,1.38,6.69,10.07,0,5,3.3,4.22,3.15.31s.89-4.28,2.84-4.77,4.16-.65,5.35-3.24c.85-1.84,3.25-.84,3.25,2.26s2.66,2.87,2.66-.22.53-3.25,2.28-4.44,5.89-9,5.58-10.73-2.5.64-8.69,5.67a17.38,17.38,0,0,1-14.09,3.53C43.05,47,33,46.4,37.47,49.27Z"/></g></g></g></svg>